<svg width="1080" height="1080" viewBox="0 0 1080 1080" fill="none" xmlns="http://www.w3.org/2000/svg">
<rect width="1080" height="1080" rx="540" fill="#1823AB"/>
<path fill-rule="evenodd" clip-rule="evenodd" d="M560.885 152.077C556.898 152.797 554.549 155.412 541.165 174.039C520.461 202.856 486.203 250.403 477.047 263.028C471.121 271.201 468.972 274.848 468.575 277.401C468.282 279.282 464.647 302.627 460.495 329.278L452.946 377.735L445.539 378.354C410.665 381.27 384.663 384.635 360.77 389.324C317.374 397.841 293.092 408.049 284.922 421.21C282.635 424.895 282.401 425.95 282.143 433.762C281.883 441.613 282.033 442.64 284.028 446.705C292.929 464.843 330.55 478.423 398.966 488.195C446.266 494.951 488.383 497.559 550.999 497.607C609.575 497.653 646.534 495.683 689.817 490.207C757.53 481.642 795.699 468.589 804.97 450.83C806.823 447.279 807.12 445.666 807.164 438.921C807.209 431.98 806.96 430.602 804.908 426.435C799.435 415.325 783.151 406.07 755.313 398.247C723.554 389.323 683.618 383.145 630.862 378.997C620.169 378.156 611.303 377.343 611.158 377.191C611.013 377.038 609.006 357.141 606.698 332.974C604.39 308.808 601.172 275.176 599.546 258.237L596.59 227.438L584.213 193.355C571.391 158.047 570.454 155.715 568.434 154.043C566.834 152.719 562.943 151.707 560.885 152.077ZM566.993 200.159L573.763 218.871L571.8 222.334C566.712 231.303 527.734 297.926 524.572 303.058C521.331 308.317 520.839 309.836 519.382 319.073C517.974 327.998 505.602 404.121 497.451 454.003C495.912 463.428 494.515 471.275 494.348 471.442C494.004 471.784 468.434 470.386 461.818 469.664C459.379 469.397 457.492 468.778 457.492 468.245C457.492 467.725 460.281 449.365 463.689 427.445C467.097 405.525 471.752 375.579 474.034 360.898C484.192 295.527 486.418 281.749 486.972 280.814C489.967 275.756 559.358 180.441 559.73 180.873C560 181.188 563.269 189.867 566.993 200.159ZM590.151 351.864C591.537 366.545 594.509 397.669 596.756 421.029C599.004 444.389 600.842 464.963 600.842 466.749C600.842 472.284 600.492 472.594 594.247 472.594H588.651L588.178 467.05C587.626 460.579 586.757 322.112 587.279 323.94C587.474 324.618 588.766 337.183 590.151 351.864ZM644.917 405.332C700.828 410.282 746.334 419.18 772.613 430.299C777.814 432.5 785.383 437.299 785.383 438.396C785.383 439.548 778.542 443.818 772.809 446.245C752.097 455.011 714.516 462.837 672.104 467.217C654.132 469.072 630.074 470.951 624.282 470.951H619.261L619.122 465.91C618.988 461.053 614.503 412.225 613.602 405.806L613.161 402.668L619.977 403.197C623.725 403.489 634.949 404.45 644.917 405.332ZM448.443 405.043C448.457 406.706 439.226 467.116 438.893 467.534C438.288 468.295 398.005 463.239 380.875 460.251C363.653 457.247 344.429 452.77 332.705 449.029C320.405 445.105 307.093 439.127 304.64 436.425C303.207 434.846 303.21 434.745 304.736 433.548C307.694 431.227 317.007 426.798 324.376 424.206C349.821 415.257 388.483 408.682 442.251 404.159C444.064 404.006 446.196 403.82 446.988 403.743C447.861 403.66 448.435 404.173 448.443 405.043ZM442.663 508.811C371.359 514.359 315.55 524.845 289.732 537.543C281.538 541.573 273.688 548.423 271.715 553.267C269.863 557.813 269.415 567.628 270.844 572.361C275.151 586.625 298.56 597.853 341.742 606.365C436.427 625.031 600.305 627.066 708.765 610.924C767.605 602.168 800.718 590.13 808.014 574.845C809.037 572.701 809.704 569.12 809.934 564.536C810.393 555.335 808.546 550.76 801.895 544.62C784.891 528.927 733.174 517.043 648.625 509.4C634.397 508.114 601.357 508.061 598.35 509.321L596.272 510.191L591.759 553.111C588.778 581.481 586.88 596.477 586.161 597.347C585.03 598.717 585.076 591.058 586.553 532.138L587.088 510.784H542.849H498.61L499.061 513.659C500.104 520.301 509.395 593.504 509.395 595.083C509.395 596.801 509.311 596.807 492.3 596.211C482.897 595.881 475.116 595.532 475.006 595.434C474.898 595.335 472.024 576.102 468.622 552.693C465.219 529.284 462.019 509.631 461.51 509.02C460.481 507.784 456.441 507.74 442.663 508.811ZM627.631 533.384C689.455 537.305 736.495 544.308 766.747 554.092C775.605 556.957 786.414 561.986 786.829 563.434C786.972 563.933 784.355 565.67 781.014 567.295C761.174 576.939 722.837 585.013 671.28 590.406C650.984 592.529 618.361 594.967 610.246 594.967H605.683L606.152 591.476C606.73 587.168 612.375 534.43 612.375 533.338C612.375 532.371 611.636 532.369 627.631 533.384ZM447.606 534.956C447.606 535.377 449.459 548.404 451.725 563.907C453.989 579.409 455.843 592.554 455.844 593.119C455.845 594.48 451.414 594.44 432.224 592.903C383.169 588.971 339.631 581.86 313.973 573.589C303.306 570.15 293.135 565.552 293.135 564.168C293.135 562.648 302.941 558.097 314.143 554.419C336.778 546.988 370.153 540.998 410.945 537.044C440.791 534.151 447.606 533.764 447.606 534.956ZM461.946 635.289C462.672 638.628 464.147 649.386 463.902 649.559C463.775 649.648 457.554 650.359 450.078 651.137C411.178 655.188 378.486 661.786 363.574 668.598C355.027 672.501 351.472 675.135 348.943 679.438C347.038 682.68 346.778 683.998 346.811 690.286C346.853 698.366 347.99 701.022 353.553 706.032C373.545 724.038 490.454 733.121 599.194 725.115C668.612 720.005 715.607 709.603 727.233 696.775C730.794 692.845 731.858 689.037 731.52 681.428C731.207 674.4 729.035 670.433 723.374 666.55C713.425 659.726 690.586 654.13 657.687 650.456C643.008 648.817 614.351 646.711 606.693 646.71L600.6 646.708L601.13 640.459L601.66 634.21L598.573 634.698C596.876 634.967 577.414 635.43 555.324 635.727C526.854 636.11 515.162 636.532 515.163 637.176C515.164 637.675 517.018 652.288 519.282 669.648C521.547 687.008 523.4 701.514 523.4 701.884C523.4 702.254 515.993 702.556 506.939 702.556C490.535 702.556 490.476 702.549 490.08 700.708C489.86 699.692 487.615 684.464 485.09 666.868C482.565 649.272 480.4 634.777 480.28 634.656C480.159 634.536 475.887 634.185 470.788 633.876L461.517 633.314L461.946 635.289ZM618.669 672.184C637.592 673.263 663.628 675.862 676.223 677.933C688.074 679.88 701.351 682.947 701.351 683.738C701.351 684.453 690.566 687.373 678.697 689.871C663.133 693.147 635.705 696.577 600.102 699.7L594.832 700.163L595.37 694.173C595.667 690.879 596.329 684.395 596.841 679.765L597.772 671.347H600.863C602.563 671.347 610.576 671.724 618.669 672.184ZM469.59 686.951C470.579 693.501 471.413 699.541 471.443 700.374C471.504 702.069 472.032 702.081 440.097 699.634C410.883 697.395 376.533 691.767 377.967 689.454C378.653 688.347 401.407 683.087 415.177 680.852C425.494 679.176 438.915 677.475 459.964 675.174C461.55 675.001 463.96 674.9 465.319 674.951L467.79 675.043L469.59 686.951ZM472.734 737.128C461.605 738.268 437.711 742.577 429.924 744.847C415.911 748.933 406.341 755.629 405.102 762.215C404.821 763.711 404.723 767.868 404.887 771.452C405.152 777.266 405.457 778.309 407.712 781.122C417.352 793.144 446.513 801.508 496.61 806.623C507.828 807.768 518.618 808.057 550.587 808.073C595.722 808.094 608.541 807.239 632.148 802.629C653.107 798.535 665.111 792.717 669.24 784.646C671.439 780.35 671.479 770.088 669.315 765.339C664.299 754.33 642.88 746.149 604.961 740.758C597.031 739.631 588.504 738.385 586.012 737.989C583.13 737.531 575.636 737.661 565.416 738.347C556.58 738.941 545.088 739.452 539.877 739.483C534.666 739.514 529.983 739.811 529.468 740.142C528.786 740.583 529.168 745.722 530.887 759.225C532.181 769.389 533.476 779.137 533.765 780.889L534.29 784.073L528.227 783.58C524.893 783.308 517.797 782.846 512.459 782.554C504.695 782.128 502.615 781.754 502.057 780.684C501.674 779.949 500.183 770.846 498.746 760.457C497.31 750.068 495.602 740.367 494.951 738.898L493.768 736.229L486.546 736.341C482.574 736.402 476.358 736.757 472.734 737.128ZM481.731 771.112C482.408 775.604 482.815 779.426 482.635 779.605C481.321 780.915 436.1 771.901 434.129 769.936C433.364 769.173 435.616 768.428 445.135 766.3C454.095 764.296 478.784 761.581 479.912 762.477C480.235 762.733 481.054 766.618 481.731 771.112ZM610.728 767.099C624.251 769.352 641.661 773.888 640.647 774.894C638.844 776.682 613.192 780.751 591.883 782.627L585.807 783.162L586.306 778.791C586.581 776.386 587.05 772.072 587.349 769.203L587.891 763.986L593.337 764.547C596.332 764.855 604.158 766.003 610.728 767.099ZM488.801 818.9C488.806 821.474 496.958 876.864 497.902 880.739C499.023 885.341 514.867 921.478 517.079 924.479C520.022 928.472 523.43 929.467 531.933 928.816C540.069 928.194 544.623 926.391 546.931 922.88C547.63 921.815 550.751 907.425 553.864 890.902C556.978 874.379 559.831 860.591 560.205 860.264C560.579 859.935 564.676 856.834 569.308 853.371C573.94 849.909 578.114 846.362 578.583 845.489C579.506 843.771 582.229 820.062 581.578 819.413C581.362 819.197 574.892 819.425 567.203 819.921C559.514 820.416 550.034 820.822 546.138 820.822C542.241 820.822 539.054 821.099 539.055 821.438C539.056 821.777 539.86 827.967 540.842 835.195C541.824 842.422 542.628 849.259 542.629 850.388C542.629 852.847 531.799 909.635 531.219 910.214C530.549 910.882 530.333 910.456 522.938 893.891L515.801 877.902L511.538 848.797C506.627 815.263 508.533 819.028 495.944 817.983C489.339 817.434 488.798 817.504 488.801 818.9Z" fill="white"/>
</svg>
